<svg width="153" height="38" viewBox="0 0 153 38" fill="none" xmlns="http://www.w3.org/2000/svg">
<path d="M71.6094 23.3516L68.3672 33H66.0938L70.3438 21.625H71.7969L71.6094 23.3516ZM74.3203 33L71.0625 23.3516L70.8672 21.625H72.3281L76.6016 33H74.3203ZM74.1719 28.7734V30.4688H68.0703V28.7734H74.1719ZM79.4766 26.1719V36.25H77.4062V24.5469H79.3203L79.4766 26.1719ZM84.9062 28.6875V28.8516C84.9062 29.4661 84.8333 30.0365 84.6875 30.5625C84.5469 31.0833 84.3385 31.5391 84.0625 31.9297C83.7865 32.3151 83.4427 32.6172 83.0312 32.8359C82.625 33.0495 82.1562 33.1562 81.625 33.1562C81.1042 33.1562 80.651 33.0573 80.2656 32.8594C79.8802 32.6562 79.5547 32.3698 79.2891 32C79.0234 31.6302 78.8099 31.2005 78.6484 30.7109C78.4922 30.2161 78.375 29.6771 78.2969 29.0938V28.5703C78.375 27.9505 78.4922 27.388 78.6484 26.8828C78.8099 26.3724 79.0234 25.9323 79.2891 25.5625C79.5547 25.1875 79.8776 24.8984 80.2578 24.6953C80.6432 24.4922 81.0938 24.3906 81.6094 24.3906C82.1458 24.3906 82.6172 24.4922 83.0234 24.6953C83.4349 24.8984 83.7812 25.1901 84.0625 25.5703C84.3438 25.9505 84.5547 26.4036 84.6953 26.9297C84.8359 27.4557 84.9062 28.0417 84.9062 28.6875ZM82.8359 28.8516V28.6875C82.8359 28.3125 82.8021 27.9661 82.7344 27.6484C82.6667 27.3255 82.5625 27.0443 82.4219 26.8047C82.2812 26.5599 82.099 26.3698 81.875 26.2344C81.651 26.099 81.3802 26.0312 81.0625 26.0312C80.7448 26.0312 80.4714 26.0833 80.2422 26.1875C80.013 26.2917 79.8255 26.4401 79.6797 26.6328C79.5339 26.8255 79.4193 27.0547 79.3359 27.3203C79.2578 27.5807 79.2057 27.8698 79.1797 28.1875V29.4844C79.2266 29.8698 79.3177 30.2161 79.4531 30.5234C79.5885 30.8307 79.7865 31.0755 80.0469 31.2578C80.3125 31.4401 80.6562 31.5312 81.0781 31.5312C81.3958 31.5312 81.6667 31.4609 81.8906 31.3203C82.1146 31.1797 82.2969 30.987 82.4375 30.7422C82.5781 30.4922 82.6797 30.2057 82.7422 29.8828C82.8047 29.5599 82.8359 29.2161 82.8359 28.8516ZM88.4766 26.1719V36.25H86.4062V24.5469H88.3203L88.4766 26.1719ZM93.9062 28.6875V28.8516C93.9062 29.4661 93.8333 30.0365 93.6875 30.5625C93.5469 31.0833 93.3385 31.5391 93.0625 31.9297C92.7865 32.3151 92.4427 32.6172 92.0312 32.8359C91.625 33.0495 91.1562 33.1562 90.625 33.1562C90.1042 33.1562 89.651 33.0573 89.2656 32.8594C88.8802 32.6562 88.5547 32.3698 88.2891 32C88.0234 31.6302 87.8099 31.2005 87.6484 30.7109C87.4922 30.2161 87.375 29.6771 87.2969 29.0938V28.5703C87.375 27.9505 87.4922 27.388 87.6484 26.8828C87.8099 26.3724 88.0234 25.9323 88.2891 25.5625C88.5547 25.1875 88.8776 24.8984 89.2578 24.6953C89.6432 24.4922 90.0938 24.3906 90.6094 24.3906C91.1458 24.3906 91.6172 24.4922 92.0234 24.6953C92.4349 24.8984 92.7812 25.1901 93.0625 25.5703C93.3438 25.9505 93.5547 26.4036 93.6953 26.9297C93.8359 27.4557 93.9062 28.0417 93.9062 28.6875ZM91.8359 28.8516V28.6875C91.8359 28.3125 91.8021 27.9661 91.7344 27.6484C91.6667 27.3255 91.5625 27.0443 91.4219 26.8047C91.2812 26.5599 91.099 26.3698 90.875 26.2344C90.651 26.099 90.3802 26.0312 90.0625 26.0312C89.7448 26.0312 89.4714 26.0833 89.2422 26.1875C89.013 26.2917 88.8255 26.4401 88.6797 26.6328C88.5339 26.8255 88.4193 27.0547 88.3359 27.3203C88.2578 27.5807 88.2057 27.8698 88.1797 28.1875V29.4844C88.2266 29.8698 88.3177 30.2161 88.4531 30.5234C88.5885 30.8307 88.7865 31.0755 89.0469 31.2578C89.3125 31.4401 89.6562 31.5312 90.0781 31.5312C90.3958 31.5312 90.6667 31.4609 90.8906 31.3203C91.1146 31.1797 91.2969 30.987 91.4375 30.7422C91.5781 30.4922 91.6797 30.2057 91.7422 29.8828C91.8047 29.5599 91.8359 29.2161 91.8359 28.8516ZM104.047 21.625V33H101.906V21.625H104.047ZM107.578 21.625V23.3203H98.4141V21.625H107.578ZM110.367 26.2734V33H108.305V24.5469H110.258L110.367 26.2734ZM112.938 24.4922L112.906 26.4141C112.792 26.3932 112.661 26.3776 112.516 26.3672C112.375 26.3568 112.242 26.3516 112.117 26.3516C111.799 26.3516 111.521 26.3958 111.281 26.4844C111.042 26.5677 110.841 26.6901 110.68 26.8516C110.523 27.013 110.404 27.2109 110.32 27.4453C110.237 27.6745 110.19 27.9349 110.18 28.2266L109.734 28.1719C109.734 27.6354 109.789 27.138 109.898 26.6797C110.008 26.2214 110.167 25.8203 110.375 25.4766C110.583 25.1328 110.844 24.8672 111.156 24.6797C111.474 24.487 111.839 24.3906 112.25 24.3906C112.365 24.3906 112.487 24.401 112.617 24.4219C112.753 24.4375 112.859 24.4609 112.938 24.4922ZM118.461 31.2031V27.3047C118.461 27.0182 118.411 26.7708 118.312 26.5625C118.214 26.3542 118.062 26.1927 117.859 26.0781C117.656 25.9635 117.398 25.9062 117.086 25.9062C116.81 25.9062 116.568 25.9531 116.359 26.0469C116.156 26.1406 116 26.2734 115.891 26.4453C115.781 26.612 115.727 26.8047 115.727 27.0234H113.656C113.656 26.6745 113.74 26.3438 113.906 26.0312C114.073 25.7135 114.31 25.4323 114.617 25.1875C114.93 24.9375 115.302 24.7422 115.734 24.6016C116.172 24.4609 116.661 24.3906 117.203 24.3906C117.844 24.3906 118.414 24.5 118.914 24.7188C119.419 24.9323 119.815 25.2552 120.102 25.6875C120.393 26.1198 120.539 26.6641 120.539 27.3203V31.0078C120.539 31.4297 120.565 31.7917 120.617 32.0938C120.674 32.3906 120.758 32.6484 120.867 32.8672V33H118.766C118.667 32.7865 118.591 32.5156 118.539 32.1875C118.487 31.8542 118.461 31.526 118.461 31.2031ZM118.75 27.8516L118.766 29.0781H117.461C117.138 29.0781 116.854 29.112 116.609 29.1797C116.365 29.2422 116.164 29.3359 116.008 29.4609C115.852 29.5807 115.734 29.7266 115.656 29.8984C115.578 30.0651 115.539 30.2552 115.539 30.4688C115.539 30.6771 115.586 30.8646 115.68 31.0312C115.779 31.1979 115.919 31.3307 116.102 31.4297C116.289 31.5234 116.508 31.5703 116.758 31.5703C117.122 31.5703 117.44 31.4974 117.711 31.3516C117.982 31.2005 118.193 31.0182 118.344 30.8047C118.495 30.5911 118.576 30.388 118.586 30.1953L119.18 31.0859C119.107 31.2995 118.997 31.526 118.852 31.7656C118.706 32.0052 118.518 32.2292 118.289 32.4375C118.06 32.6458 117.784 32.8177 117.461 32.9531C117.138 33.0885 116.763 33.1562 116.336 33.1562C115.789 33.1562 115.299 33.0469 114.867 32.8281C114.435 32.6094 114.094 32.3099 113.844 31.9297C113.594 31.5495 113.469 31.1172 113.469 30.6328C113.469 30.1849 113.552 29.7891 113.719 29.4453C113.885 29.1016 114.133 28.8125 114.461 28.5781C114.789 28.3385 115.195 28.1589 115.68 28.0391C116.169 27.9141 116.729 27.8516 117.359 27.8516H118.75ZM125.867 31.5312C126.159 31.5312 126.419 31.474 126.648 31.3594C126.878 31.2448 127.06 31.0833 127.195 30.875C127.336 30.6667 127.411 30.4245 127.422 30.1484H129.367C129.357 30.7214 129.195 31.2344 128.883 31.6875C128.57 32.1406 128.154 32.5 127.633 32.7656C127.117 33.026 126.539 33.1562 125.898 33.1562C125.247 33.1562 124.68 33.0469 124.195 32.8281C123.711 32.6094 123.307 32.3047 122.984 31.9141C122.667 31.5234 122.427 31.0703 122.266 30.5547C122.109 30.0391 122.031 29.487 122.031 28.8984V28.6484C122.031 28.0599 122.109 27.5078 122.266 26.9922C122.427 26.4766 122.667 26.0234 122.984 25.6328C123.307 25.2422 123.711 24.9375 124.195 24.7188C124.68 24.5 125.245 24.3906 125.891 24.3906C126.573 24.3906 127.172 24.5234 127.688 24.7891C128.208 25.0547 128.615 25.4297 128.906 25.9141C129.203 26.3984 129.357 26.9688 129.367 27.625H127.422C127.411 27.3229 127.344 27.0521 127.219 26.8125C127.094 26.5729 126.917 26.3802 126.688 26.2344C126.458 26.0885 126.18 26.0156 125.852 26.0156C125.503 26.0156 125.211 26.0885 124.977 26.2344C124.747 26.3802 124.568 26.5807 124.438 26.8359C124.312 27.0859 124.224 27.3672 124.172 27.6797C124.125 27.987 124.102 28.3099 124.102 28.6484V28.8984C124.102 29.2422 124.125 29.5703 124.172 29.8828C124.224 30.1953 124.312 30.4766 124.438 30.7266C124.568 30.9714 124.747 31.1667 124.977 31.3125C125.211 31.4583 125.508 31.5312 125.867 31.5312ZM132.805 20.9922V33H130.742V20.9922H132.805ZM138.102 24.5469L134.422 28.6797L132.43 30.7031L131.773 29.1016L133.312 27.1641L135.609 24.5469H138.102ZM135.992 33L133.375 29.0625L134.75 27.7266L138.383 33H135.992ZM142.836 33.1562C142.195 33.1562 141.62 33.0521 141.109 32.8438C140.599 32.6354 140.164 32.3464 139.805 31.9766C139.451 31.6016 139.177 31.1667 138.984 30.6719C138.797 30.1719 138.703 29.6354 138.703 29.0625V28.75C138.703 28.099 138.797 27.5078 138.984 26.9766C139.172 26.4401 139.438 25.9792 139.781 25.5938C140.125 25.2083 140.536 24.9115 141.016 24.7031C141.495 24.4948 142.023 24.3906 142.602 24.3906C143.201 24.3906 143.729 24.4922 144.188 24.6953C144.646 24.8932 145.029 25.1745 145.336 25.5391C145.643 25.9036 145.875 26.3411 146.031 26.8516C146.188 27.3568 146.266 27.9167 146.266 28.5312V29.3984H139.641V27.9766H144.234V27.8203C144.224 27.4922 144.161 27.1927 144.047 26.9219C143.932 26.6458 143.755 26.4271 143.516 26.2656C143.276 26.099 142.966 26.0156 142.586 26.0156C142.279 26.0156 142.01 26.0833 141.781 26.2188C141.557 26.349 141.37 26.5365 141.219 26.7812C141.073 27.0208 140.964 27.3073 140.891 27.6406C140.818 27.974 140.781 28.3438 140.781 28.75V29.0625C140.781 29.4167 140.828 29.7448 140.922 30.0469C141.021 30.349 141.164 30.612 141.352 30.8359C141.544 31.0547 141.773 31.2266 142.039 31.3516C142.31 31.4714 142.617 31.5312 142.961 31.5312C143.393 31.5312 143.784 31.4479 144.133 31.2812C144.487 31.1094 144.794 30.8568 145.055 30.5234L146.094 31.6016C145.917 31.862 145.677 32.112 145.375 32.3516C145.078 32.5911 144.719 32.7865 144.297 32.9375C143.875 33.0833 143.388 33.1562 142.836 33.1562ZM149.711 26.2734V33H147.648V24.5469H149.602L149.711 26.2734ZM152.281 24.4922L152.25 26.4141C152.135 26.3932 152.005 26.3776 151.859 26.3672C151.719 26.3568 151.586 26.3516 151.461 26.3516C151.143 26.3516 150.865 26.3958 150.625 26.4844C150.385 26.5677 150.185 26.6901 150.023 26.8516C149.867 27.013 149.747 27.2109 149.664 27.4453C149.581 27.6745 149.534 27.9349 149.523 28.2266L149.078 28.1719C149.078 27.6354 149.133 27.138 149.242 26.6797C149.352 26.2214 149.51 25.8203 149.719 25.4766C149.927 25.1328 150.188 24.8672 150.5 24.6797C150.818 24.487 151.182 24.3906 151.594 24.3906C151.708 24.3906 151.831 24.401 151.961 24.4219C152.096 24.4375 152.203 24.4609 152.281 24.4922Z" fill="#51A6A6"/>
<rect width="60" height="38" fill="#51A6A6"/>
<path d="M24.4141 15.5273L19.5508 30H16.1406L22.5156 12.9375H24.6953L24.4141 15.5273ZM28.4805 30L23.5938 15.5273L23.3008 12.9375H25.4922L31.9023 30H28.4805ZM28.2578 23.6602V26.2031H19.1055V23.6602H28.2578ZM39.5078 12.9375V30H36.2969V12.9375H39.5078ZM44.8047 12.9375V15.4805H31.0586V12.9375H44.8047Z" fill="white"/>
</svg>
